# xmcd
#
# Track frame offsets: 
#        150
#        22207
#        34568
#        50226
#        62861
#        77436
#        89122
#        104697
#        121692
#        136540
#        151690
#        165588
#        188722
#        202394
#        226701
#
# Disc length: 3555 seconds
#
# Revision: 1
# Processed by: cddbd v1.5.2PL0 Copyright (c) Steve Scherf et al.
# Submitted via: ExactAudioCopy v0.99pb5
#
DISCID=c40de10f
DTITLE=Eilen Jewell - Live at the Narrows [disc 2]
DYEAR=2014
DGENRE=Folk-Rock
TTITLE0=I Remember You
TTITLE1=Heartache Boulevard
TTITLE2=Back to Dallas
TTITLE3=Why I'm Walkin'
TTITLE4=Sweet Rose
TTITLE5=Blue Highway
TTITLE6=Drop Down Daddy
TTITLE7=Boundary County
TTITLE8=Everywhere I Go
TTITLE9=Fading Memory
TTITLE10=Head over Heels
TTITLE11=The Flood
TTITLE12=Thanks a Lot
TTITLE13=If You Catch Me Stealing
TTITLE14=Shakin' All Over
EXTD=
EXTT0=
EXTT1=
EXTT2=
EXTT3=
EXTT4=
EXTT5=
EXTT6=
EXTT7=
EXTT8=
EXTT9=
EXTT10=
EXTT11=
EXTT12=
EXTT13=
EXTT14=
PLAYORDER=
